<!-- blocks.svg -->
<svg xmlns="http://www.w3.org/2000/svg">

<!-- 
  <symbol id="icon-listfff" viewBox="0 0 24 24">
    <path d="M0 0h8v8h-8zM12 2h20v4h-20zM0 12h8v8h-8zM12 14h20v4h-20zM0 24h8v8h-8zM12 26h20v4h-20z"></path>
  </symbol> 
-->

  <symbol id="list" viewBox="0 0 23 23" fill="none" xmlns="http://www.w3.org/2000/svg">
    <path d="M8 6.00067L21 6.00139M8 12.0007L21 12.0015M8 18.0007L21 18.0015M3.5 6H3.51M3.5 12H3.51M3.5 18H3.51M4 6C4 6.27614 3.77614 6.5 3.5 6.5C3.22386 6.5 3 6.27614 3 6C3 5.72386 3.22386 5.5 3.5 5.5C3.77614 5.5 4 5.72386 4 6ZM4 12C4 12.2761 3.77614 12.5 3.5 12.5C3.22386 12.5 3 12.2761 3 12C3 11.7239 3.22386 11.5 3.5 11.5C3.77614 11.5 4 11.7239 4 12ZM4 18C4 18.2761 3.77614 18.5 3.5 18.5C3.22386 18.5 3 18.2761 3 18C3 17.7239 3.22386 17.5 3.5 17.5C3.77614 17.5 4 17.7239 4 18Z" stroke-width="2" stroke-linecap="round" stroke-linejoin="round"/>
  </symbol>

  <symbol id="square-grid" viewBox="0 0 56 56" xmlns="http://www.w3.org/2000/svg">
    <path d="M 3.7596 27.6955 L 12.7353 27.6955 C 15.2351 27.6955 16.4949 26.4357 16.4949 23.8375 L 16.4949 15.0389 C 16.4949 12.4406 15.2351 11.2005 12.7353 11.2005 L 3.7596 11.2005 C 1.2598 11.2005 0 12.4406 0 15.0389 L 0 23.8375 C 0 26.4357 1.2598 27.6955 3.7596 27.6955 Z M 23.5220 27.6955 L 32.4781 27.6955 C 34.9976 27.6955 36.2378 26.4357 36.2378 23.8375 L 36.2378 15.0389 C 36.2378 12.4406 34.9976 11.2005 32.4781 11.2005 L 23.5220 11.2005 C 21.0222 11.2005 19.7624 12.4406 19.7624 15.0389 L 19.7624 23.8375 C 19.7624 26.4357 21.0222 27.6955 23.5220 27.6955 Z M 43.2646 27.6955 L 52.2405 27.6955 C 54.7402 27.6955 56.0000 26.4357 56.0000 23.8375 L 56.0000 15.0389 C 56.0000 12.4406 54.7402 11.2005 52.2405 11.2005 L 43.2646 11.2005 C 40.7648 11.2005 39.5051 12.4406 39.5051 15.0389 L 39.5051 23.8375 C 39.5051 26.4357 40.7648 27.6955 43.2646 27.6955 Z M 3.7596 47.4382 L 12.7353 47.4382 C 15.2351 47.4382 16.4949 46.1981 16.4949 43.5999 L 16.4949 34.7816 C 16.4949 32.2031 15.2351 30.9433 12.7353 30.9433 L 3.7596 30.9433 C 1.2598 30.9433 0 32.2031 0 34.7816 L 0 43.5999 C 0 46.1981 1.2598 47.4382 3.7596 47.4382 Z M 23.5220 47.4382 L 32.4781 47.4382 C 34.9976 47.4382 36.2378 46.1981 36.2378 43.5999 L 36.2378 34.7816 C 36.2378 32.2031 34.9976 30.9433 32.4781 30.9433 L 23.5220 30.9433 C 21.0222 30.9433 19.7624 32.2031 19.7624 34.7816 L 19.7624 43.5999 C 19.7624 46.1981 21.0222 47.4382 23.5220 47.4382 Z M 43.2646 47.4382 L 52.2405 47.4382 C 54.7402 47.4382 56.0000 46.1981 56.0000 43.5999 L 56.0000 34.7816 C 56.0000 32.2031 54.7402 30.9433 52.2405 30.9433 L 43.2646 30.9433 C 40.7648 30.9433 39.5051 32.2031 39.5051 34.7816 L 39.5051 43.5999 C 39.5051 46.1981 40.7648 47.4382 43.2646 47.4382 Z"/>
  </symbol>

  <symbol id="star" viewBox="0 0 24 24" xmlns="http://www.w3.org/2000/svg">
    <path d="M10 1.584L12.376 7.716H18.91L13.628 11.668L15.002 17.416L10 14.484L5.002 17.416L6.376 11.668L1.09 7.716H7.624L10 1.584Z" fill="#ff4c00"/>
  </symbol>

  <symbol id="burger" viewBox="0 0 28 28" xmlns="http://www.w3.org/2000/svg">
    <path d="M19.8333 11.6667H3.5" stroke-width="2" stroke-linecap="round" stroke-linejoin="round" />
    <path d="M24.5 7H3.5" stroke-width="2" stroke-linecap="round" stroke-linejoin="round" />
    <path d="M24.5 16.3333H3.5"  stroke-width="2" stroke-linecap="round" stroke-linejoin="round" />
    <path d="M19.8333 21H3.5" stroke-width="2" stroke-linecap="round" stroke-linejoin="round" />
  </symbol>

  <symbol id="arr-sign-up" viewBox="0 0 20 20" fill="none" xmlns="http://www.w3.org/2000/svg">
    <path d="M3.33325 10H16.6666M16.6666 10L11.6666 5M16.6666 10L11.6666 15" stroke-width="2" stroke-linecap="round" stroke-linejoin="round" />
  </symbol>

  <symbol id="handbagr" viewBox="0 0 20 20" xmlns="http://www.w3.org/2000/svg">
    <path d="M15.8333 5.83335H13.3333V5.00002C13.3333 4.11596 12.9821 3.26812 12.357 2.643C11.7319 2.01788 10.884 1.66669 9.99999 1.66669C9.11594 1.66669 8.26809 2.01788 7.64297 2.643C7.01785 3.26812 6.66666 4.11596 6.66666 5.00002V5.83335H4.16666C3.94565 5.83335 3.73369 5.92115 3.57741 6.07743C3.42113 6.23371 3.33333 6.44567 3.33333 6.66669V15.8334C3.33333 16.4964 3.59672 17.1323 4.06556 17.6011C4.5344 18.07 5.17029 18.3334 5.83333 18.3334H14.1667C14.8297 18.3334 15.4656 18.07 15.9344 17.6011C16.4033 17.1323 16.6667 16.4964 16.6667 15.8334V6.66669C16.6667 6.44567 16.5789 6.23371 16.4226 6.07743C16.2663 5.92115 16.0543 5.83335 15.8333 5.83335ZM8.33333 5.00002C8.33333 4.55799 8.50892 4.13407 8.82148 3.82151C9.13404 3.50895 9.55796 3.33335 9.99999 3.33335C10.442 3.33335 10.8659 3.50895 11.1785 3.82151C11.4911 4.13407 11.6667 4.55799 11.6667 5.00002V5.83335H8.33333V5.00002ZM15 15.8334C15 16.0544 14.9122 16.2663 14.7559 16.4226C14.5996 16.5789 14.3877 16.6667 14.1667 16.6667H5.83333C5.61231 16.6667 5.40035 16.5789 5.24407 16.4226C5.08779 16.2663 4.99999 16.0544 4.99999 15.8334V7.50002H6.66666V8.33335C6.66666 8.55437 6.75446 8.76633 6.91074 8.92261C7.06702 9.07889 7.27898 9.16669 7.49999 9.16669C7.72101 9.16669 7.93297 9.07889 8.08925 8.92261C8.24553 8.76633 8.33333 8.55437 8.33333 8.33335V7.50002H11.6667V8.33335C11.6667 8.55437 11.7545 8.76633 11.9107 8.92261C12.067 9.07889 12.279 9.16669 12.5 9.16669C12.721 9.16669 12.933 9.07889 13.0892 8.92261C13.2455 8.76633 13.3333 8.55437 13.3333 8.33335V7.50002H15V15.8334Z"/>
  </symbol>
  
  <symbol id="logo" viewBox="0 0 24 24" fill="none" xmlns="http://www.w3.org/2000/svg">
    <g clip-path="url(#clip0_4313_342)">
      <path d="M0 0L12.2571 12.1286L24 24V0H0Z" fill="#F6F6F6" />
      <path d="M3.34277 3.17145L12.2999 12.0429L20.7428 20.6572H3.34277V3.17145Z" fill="#F6F6F6" />
      <path d="M20.7997 20.7137L11.8425 11.8423L3.39966 3.22797H20.7997V20.7137Z" fill="#4F2EE8" />
      <path d="M6.94287 6.77142L11.7 11.5286L17.1429 16.9714H6.94287V6.77142Z" fill="#4F2EE8" />
      <path d="M6.94287 6.77142L11.7 11.5286L17.1429 16.9714V6.77142H6.94287Z" fill="#F6F6F6" />
    </g>
    <defs>
      <clipPath id="clip0_4313_342">
        <rect width="24" height="24" fill="white" />
      </clipPath>
    </defs>
  </symbol>

  <symbol id="scroll" viewBox="0 0 24 24" fill="white">
    <path d="M3.37519 14.7L11.7752 6.275C11.8752 6.175 11.9835 6.10433 12.1002 6.063C12.2169 6.021 12.3419 6 12.4752 6C12.6085 6 12.7335 6.021 12.8502 6.063C12.9669 6.10433 13.0752 6.175 13.1752 6.275L21.6002 14.7C21.8335 14.9333 21.9502 15.225 21.9502 15.575C21.9502 15.925 21.8252 16.225 21.5752 16.475C21.3252 16.725 21.0335 16.85 20.7002 16.85C20.3669 16.85 20.0752 16.725 19.8252 16.475L12.4752 9.125L5.12519 16.475C4.89186 16.7083 4.60453 16.825 4.26319 16.825C3.92119 16.825 3.62519 16.7 3.37519 16.45C3.12519 16.2 3.00019 15.9083 3.00019 15.575C3.00019 15.2417 3.12519 14.95 3.37519 14.7Z" />
  </symbol>

  <symbol id="close" viewBox="0 0 28 28" xmlns="http://www.w3.org/2000/svg">
    <path d="M21 7L7 21M7 7L21 21" stroke-width="3" stroke-linecap="round" stroke-linejoin="round" />
  </symbol>

  <symbol id="block" viewBox="0 0 28 28">
    <ellipse cx="14" cy="14" rx="14" ry="14"/>
    <path d="M12 8H16M8 10H20M18.6667 10L18.1991 17.0129C18.129 18.065 18.0939 18.5911 17.8667 18.99C17.6666 19.3412 17.3648 19.6235 17.0011 19.7998C16.588 20 16.0607 20 15.0062 20H12.9938C11.9393 20 11.412 20 10.9989 19.7998C10.6352 19.6235 10.3334 19.3412 10.1333 18.99C9.90607 18.5911 9.871 18.065 9.80086 17.0129L9.33333 10M12.6667 13V16.3333M15.3333 13V16.3333" stroke="white" stroke-linecap="round" stroke-linejoin="round"/>
  </symbol>

  <symbol id="arrow" width="22" height="22" viewBox="0 0 22 22" fill="none" xmlns="http://www.w3.org/2000/svg">
    <path d="M10.3491 12.2834C10.4344 12.3693 10.5357 12.4375 10.6475 12.484C10.7592 12.5306 10.879 12.5545 11 12.5545C11.121 12.5545 11.2408 12.5306 11.3525 12.484C11.4642 12.4375 11.5656 12.3693 11.6508 12.2834L15.8492 8.07588C15.9344 7.98996 16.0358 7.92177 16.1475 7.87523C16.2592 7.82869 16.379 7.80473 16.5 7.80473C16.621 7.80473 16.7408 7.82869 16.8525 7.87523C16.9642 7.92177 17.0656 7.98996 17.1508 8.07588C17.3216 8.24763 17.4174 8.47996 17.4174 8.72213C17.4174 8.9643 17.3216 9.19663 17.1508 9.36838L12.9433 13.5759C12.4277 14.0909 11.7287 14.3801 11 14.3801C10.2712 14.3801 9.57227 14.0909 9.05664 13.5759L4.84914 9.36838C4.67979 9.19764 4.58432 8.96719 4.5833 8.72671C4.58261 8.60607 4.60573 8.48648 4.65135 8.3748C4.69697 8.26311 4.76418 8.16153 4.84914 8.07588C4.93435 7.98996 5.03574 7.92177 5.14744 7.87523C5.25915 7.82869 5.37896 7.80473 5.49997 7.80473C5.62098 7.80473 5.7408 7.82869 5.8525 7.87523C5.96421 7.92177 6.06559 7.98996 6.15081 8.07588L10.3491 12.2834Z" fill="#4F2EE8" />
  </symbol>

  <symbol id="arr" viewBox="0 0 24 24" fill="none" xmlns="http://www.w3.org/2000/svg">
  <path d="M13.4001 12.7101C13.4939 12.6171 13.5683 12.5065 13.619 12.3846C13.6698 12.2628 13.6959 12.1321 13.6959 12.0001C13.6959 11.868 13.6698 11.7373 13.619 11.6155C13.5683 11.4936 13.4939 11.383 13.4001 11.2901L8.81014 6.71005C8.71641 6.61708 8.64202 6.50648 8.59125 6.38462C8.54048 6.26276 8.51434 6.13206 8.51434 6.00005C8.51434 5.86803 8.54048 5.73733 8.59125 5.61547C8.64202 5.49361 8.71641 5.38301 8.81014 5.29005C8.9975 5.10379 9.25095 4.99925 9.51514 4.99925C9.77933 4.99925 10.0328 5.10379 10.2201 5.29005L14.8101 9.88005C15.3719 10.4426 15.6875 11.205 15.6875 12.0001C15.6875 12.7951 15.3719 13.5576 14.8101 14.1201L10.2201 18.7101C10.0339 18.8948 9.78248 18.999 9.52014 19.0001C9.38853 19.0008 9.25807 18.9756 9.13623 18.9258C9.0144 18.8761 8.90358 18.8027 8.81014 18.7101C8.71641 18.6171 8.64202 18.5065 8.59125 18.3846C8.54048 18.2628 8.51434 18.1321 8.51434 18.0001C8.51434 17.868 8.54048 17.7373 8.59125 17.6155C8.64202 17.4936 8.71641 17.383 8.81014 17.2901L13.4001 12.7101Z" fill="black" />
  </symbol>

  <symbol id="double-arrow" viewBox="0 0 24 24" fill="none" xmlns="http://www.w3.org/2000/svg">
  <path d="M13.4001 12.7101C13.4939 12.6171 13.5683 12.5065 13.619 12.3846C13.6698 12.2628 13.6959 12.1321 13.6959 12.0001C13.6959 11.868 13.6698 11.7373 13.619 11.6155C13.5683 11.4936 13.4939 11.383 13.4001 11.2901L8.81014 6.71005C8.71641 6.61708 8.64202 6.50648 8.59125 6.38462C8.54048 6.26276 8.51434 6.13206 8.51434 6.00005C8.51434 5.86803 8.54048 5.73733 8.59125 5.61547C8.64202 5.49361 8.71641 5.38301 8.81014 5.29005C8.9975 5.10379 9.25095 4.99925 9.51514 4.99925C9.77933 4.99925 10.0328 5.10379 10.2201 5.29005L14.8101 9.88005C15.3719 10.4426 15.6875 11.205 15.6875 12.0001C15.6875 12.7951 15.3719 13.5576 14.8101 14.1201L10.2201 18.7101C10.0339 18.8948 9.78248 18.999 9.52014 19.0001C9.38853 19.0008 9.25807 18.9756 9.13623 18.9258C9.0144 18.8761 8.90358 18.8027 8.81014 18.7101C8.71641 18.6171 8.64202 18.5065 8.59125 18.3846C8.54048 18.2628 8.51434 18.1321 8.51434 18.0001C8.51434 17.868 8.54048 17.7373 8.59125 17.6155C8.64202 17.4936 8.71641 17.383 8.81014 17.2901L13.4001 12.7101Z" fill="black" transform="translate(-3 0)"/>
  <path d="M13.4001 12.7101C13.4939 12.6171 13.5683 12.5065 13.619 12.3846C13.6698 12.2628 13.6959 12.1321 13.6959 12.0001C13.6959 11.868 13.6698 11.7373 13.619 11.6155C13.5683 11.4936 13.4939 11.383 13.4001 11.2901L8.81014 6.71005C8.71641 6.61708 8.64202 6.50648 8.59125 6.38462C8.54048 6.26276 8.51434 6.13206 8.51434 6.00005C8.51434 5.86803 8.54048 5.73733 8.59125 5.61547C8.64202 5.49361 8.71641 5.38301 8.81014 5.29005C8.9975 5.10379 9.25095 4.99925 9.51514 4.99925C9.77933 4.99925 10.0328 5.10379 10.2201 5.29005L14.8101 9.88005C15.3719 10.4426 15.6875 11.205 15.6875 12.0001C15.6875 12.7951 15.3719 13.5576 14.8101 14.1201L10.2201 18.7101C10.0339 18.8948 9.78248 18.999 9.52014 19.0001C9.38853 19.0008 9.25807 18.9756 9.13623 18.9258C9.0144 18.8761 8.90358 18.8027 8.81014 18.7101C8.71641 18.6171 8.64202 18.5065 8.59125 18.3846C8.54048 18.2628 8.51434 18.1321 8.51434 18.0001C8.51434 17.868 8.54048 17.7373 8.59125 17.6155C8.64202 17.4936 8.71641 17.383 8.81014 17.2901L13.4001 12.7101Z" fill="black" transform="translate(3 0)"/>
  </symbol>
</svg>
