<!-- blocks.svg -->
<svg xmlns="http://www.w3.org/2000/svg">

  <symbol id="close" viewBox="0 0 28 28" fill="none" xmlns="http://www.w3.org/2000/svg">
    <path d="M21 7L7 21M7 7L21 21" stroke="#111111" stroke-width="3" stroke-linecap="round" stroke-linejoin="round" />
  </symbol>

  <symbol id="block" viewBox="0 0 28 28">
    <ellipse cx="14" cy="14" rx="14" ry="14" fill="#4F2EE8"/>
    <path d="M12 8H16M8 10H20M18.6667 10L18.1991 17.0129C18.129 18.065 18.0939 18.5911 17.8667 18.99C17.6666 19.3412 17.3648 19.6235 17.0011 19.7998C16.588 20 16.0607 20 15.0062 20H12.9938C11.9393 20 11.412 20 10.9989 19.7998C10.6352 19.6235 10.3334 19.3412 10.1333 18.99C9.90607 18.5911 9.871 18.065 9.80086 17.0129L9.33333 10M12.6667 13V16.3333M15.3333 13V16.3333" stroke="white" stroke-linecap="round" stroke-linejoin="round"/>
    </symbol>

    <symbol id="arrow" width="22" height="22" viewBox="0 0 22 22" fill="none" xmlns="http://www.w3.org/2000/svg">
    <path d="M10.3491 12.2834C10.4344 12.3693 10.5357 12.4375 10.6475 12.484C10.7592 12.5306 10.879 12.5545 11 12.5545C11.121 12.5545 11.2408 12.5306 11.3525 12.484C11.4642 12.4375 11.5656 12.3693 11.6508 12.2834L15.8492 8.07588C15.9344 7.98996 16.0358 7.92177 16.1475 7.87523C16.2592 7.82869 16.379 7.80473 16.5 7.80473C16.621 7.80473 16.7408 7.82869 16.8525 7.87523C16.9642 7.92177 17.0656 7.98996 17.1508 8.07588C17.3216 8.24763 17.4174 8.47996 17.4174 8.72213C17.4174 8.9643 17.3216 9.19663 17.1508 9.36838L12.9433 13.5759C12.4277 14.0909 11.7287 14.3801 11 14.3801C10.2712 14.3801 9.57227 14.0909 9.05664 13.5759L4.84914 9.36838C4.67979 9.19764 4.58432 8.96719 4.5833 8.72671C4.58261 8.60607 4.60573 8.48648 4.65135 8.3748C4.69697 8.26311 4.76418 8.16153 4.84914 8.07588C4.93435 7.98996 5.03574 7.92177 5.14744 7.87523C5.25915 7.82869 5.37896 7.80473 5.49997 7.80473C5.62098 7.80473 5.7408 7.82869 5.8525 7.87523C5.96421 7.92177 6.06559 7.98996 6.15081 8.07588L10.3491 12.2834Z" fill="#4F2EE8" />
  </symbol>

  <symbol id="arr" viewBox="0 0 24 24" fill="none" xmlns="http://www.w3.org/2000/svg">
  <path d="M13.4001 12.7101C13.4939 12.6171 13.5683 12.5065 13.619 12.3846C13.6698 12.2628 13.6959 12.1321 13.6959 12.0001C13.6959 11.868 13.6698 11.7373 13.619 11.6155C13.5683 11.4936 13.4939 11.383 13.4001 11.2901L8.81014 6.71005C8.71641 6.61708 8.64202 6.50648 8.59125 6.38462C8.54048 6.26276 8.51434 6.13206 8.51434 6.00005C8.51434 5.86803 8.54048 5.73733 8.59125 5.61547C8.64202 5.49361 8.71641 5.38301 8.81014 5.29005C8.9975 5.10379 9.25095 4.99925 9.51514 4.99925C9.77933 4.99925 10.0328 5.10379 10.2201 5.29005L14.8101 9.88005C15.3719 10.4426 15.6875 11.205 15.6875 12.0001C15.6875 12.7951 15.3719 13.5576 14.8101 14.1201L10.2201 18.7101C10.0339 18.8948 9.78248 18.999 9.52014 19.0001C9.38853 19.0008 9.25807 18.9756 9.13623 18.9258C9.0144 18.8761 8.90358 18.8027 8.81014 18.7101C8.71641 18.6171 8.64202 18.5065 8.59125 18.3846C8.54048 18.2628 8.51434 18.1321 8.51434 18.0001C8.51434 17.868 8.54048 17.7373 8.59125 17.6155C8.64202 17.4936 8.71641 17.383 8.81014 17.2901L13.4001 12.7101Z" fill="black" />
  </symbol>

  <symbol id="double-arrow" viewBox="0 0 24 24" fill="none" xmlns="http://www.w3.org/2000/svg">
  <path d="M13.4001 12.7101C13.4939 12.6171 13.5683 12.5065 13.619 12.3846C13.6698 12.2628 13.6959 12.1321 13.6959 12.0001C13.6959 11.868 13.6698 11.7373 13.619 11.6155C13.5683 11.4936 13.4939 11.383 13.4001 11.2901L8.81014 6.71005C8.71641 6.61708 8.64202 6.50648 8.59125 6.38462C8.54048 6.26276 8.51434 6.13206 8.51434 6.00005C8.51434 5.86803 8.54048 5.73733 8.59125 5.61547C8.64202 5.49361 8.71641 5.38301 8.81014 5.29005C8.9975 5.10379 9.25095 4.99925 9.51514 4.99925C9.77933 4.99925 10.0328 5.10379 10.2201 5.29005L14.8101 9.88005C15.3719 10.4426 15.6875 11.205 15.6875 12.0001C15.6875 12.7951 15.3719 13.5576 14.8101 14.1201L10.2201 18.7101C10.0339 18.8948 9.78248 18.999 9.52014 19.0001C9.38853 19.0008 9.25807 18.9756 9.13623 18.9258C9.0144 18.8761 8.90358 18.8027 8.81014 18.7101C8.71641 18.6171 8.64202 18.5065 8.59125 18.3846C8.54048 18.2628 8.51434 18.1321 8.51434 18.0001C8.51434 17.868 8.54048 17.7373 8.59125 17.6155C8.64202 17.4936 8.71641 17.383 8.81014 17.2901L13.4001 12.7101Z" fill="black" transform="translate(-3 0)"/>
  <path d="M13.4001 12.7101C13.4939 12.6171 13.5683 12.5065 13.619 12.3846C13.6698 12.2628 13.6959 12.1321 13.6959 12.0001C13.6959 11.868 13.6698 11.7373 13.619 11.6155C13.5683 11.4936 13.4939 11.383 13.4001 11.2901L8.81014 6.71005C8.71641 6.61708 8.64202 6.50648 8.59125 6.38462C8.54048 6.26276 8.51434 6.13206 8.51434 6.00005C8.51434 5.86803 8.54048 5.73733 8.59125 5.61547C8.64202 5.49361 8.71641 5.38301 8.81014 5.29005C8.9975 5.10379 9.25095 4.99925 9.51514 4.99925C9.77933 4.99925 10.0328 5.10379 10.2201 5.29005L14.8101 9.88005C15.3719 10.4426 15.6875 11.205 15.6875 12.0001C15.6875 12.7951 15.3719 13.5576 14.8101 14.1201L10.2201 18.7101C10.0339 18.8948 9.78248 18.999 9.52014 19.0001C9.38853 19.0008 9.25807 18.9756 9.13623 18.9258C9.0144 18.8761 8.90358 18.8027 8.81014 18.7101C8.71641 18.6171 8.64202 18.5065 8.59125 18.3846C8.54048 18.2628 8.51434 18.1321 8.51434 18.0001C8.51434 17.868 8.54048 17.7373 8.59125 17.6155C8.64202 17.4936 8.71641 17.383 8.81014 17.2901L13.4001 12.7101Z" fill="black" transform="translate(3 0)"/>
  </symbol>
</svg>
